<?xml version="1.0" encoding="UTF-8"?>
<svg width="40px" height="36px" viewBox="0 0 40 36" version="1.1" xmlns="http://www.w3.org/2000/svg" xmlns:xlink="http://www.w3.org/1999/xlink">
    <!-- Generator: Sketch 52.6 (67491) - http://www.bohemiancoding.com/sketch -->
    <title>iconcarpeta</title>
    <desc>Created with Sketch.</desc>
    <g id="Page-1" stroke="none" stroke-width="1" fill="none" fill-rule="evenodd">
        <g id="Artboard" transform="translate(-110.000000, -490.000000)">
            <g id="iconcarpeta" transform="translate(110.000000, 490.000000)">
                <path d="M31,11.5 L19.4,11.5 C18.7,11.5 18.2,11 18.2,10.3 L18.2,9.8 C18.2,8.8 17.4,8 16.4,8 L4.2,8 C3.2,8 2.4,8.8 2.4,9.8 L2.4,33.3 L32.8,33.3 L32.8,13.3 C32.8,12.3 32,11.5 31,11.5 Z" id="Path"></path>
                <path d="M35.2,13.3 L35.2,28.1 L37.7,28.1 L37.7,8.1 C37.7,7.1 36.9,6.3 35.9,6.3 L24.3,6.3 C23.6,6.3 23.1,5.8 23.1,5.1 L23.1,4.5 C23.1,3.5 22.3,2.7 21.3,2.7 L9,2.7 C8,2.7 7.2,3.5 7.2,4.5 L7.2,5.5 L16.4,5.5 C18.5,5.5 20.2,7 20.5,9 L31,9 C33.3,9.1 35.2,11 35.2,13.3 Z" id="Path" fill="#A4C49A"></path>
                <path d="M35.8,3.9 L25.4,3.9 C25.1,1.9 23.3,0.4 21.3,0.4 L9,0.4 C6.7,0.4 4.8,2.3 4.8,4.6 L4.8,5.6 L4.2,5.6 C1.9,5.6 0,7.4 0,9.7 L0,34.4 C0,35.1 0.5,35.6 1.2,35.6 L34,35.6 C34.7,35.6 35.2,35.1 35.2,34.4 L35.2,30.4 L38.8,30.4 C39.5,30.4 40,29.9 40,29.2 L40,8.1 C40,5.8 38.1,3.9 35.8,3.9 Z M20.6,9.1 C20.3,7.1 18.5,5.6 16.5,5.6 L7.2,5.6 L7.2,4.6 C7.2,3.6 8,2.8 9,2.8 L21.2,2.8 C22.2,2.8 23,3.6 23,4.6 L23,5.1 C23,5.8 23.5,6.3 24.2,6.3 L35.7,6.3 C36.7,6.3 37.5,7.1 37.5,8.1 L37.5,28.1 L35,28.1 L35,13.3 C35,11 33.1,9.1 30.8,9.1 L20.6,9.1 Z M32.8,33.3 L2.4,33.3 L2.4,9.7 C2.4,8.7 3.2,7.9 4.2,7.9 L16.4,7.9 C17.4,7.9 18.2,8.7 18.2,9.7 L18.2,10.2 C18.2,10.9 18.7,11.4 19.4,11.4 L31,11.4 C32,11.4 32.8,12.2 32.8,13.2 L32.8,33.3 Z" id="Shape" fill="#778E70" fill-rule="nonzero"></path>
            </g>
        </g>
    </g>
</svg>