<?xml version="1.0" encoding="UTF-8"?>
<svg width="41px" height="34px" viewBox="0 0 41 34" version="1.1" xmlns="http://www.w3.org/2000/svg" xmlns:xlink="http://www.w3.org/1999/xlink">
    <!-- Generator: Sketch 52.6 (67491) - http://www.bohemiancoding.com/sketch -->
    <title>iconimagen</title>
    <desc>Created with Sketch.</desc>
    <g id="Page-1" stroke="none" stroke-width="1" fill="none" fill-rule="evenodd">
        <g id="Artboard" transform="translate(-316.000000, -491.000000)">
            <g id="iconimagen" transform="translate(316.000000, 491.000000)">
                <path d="M38.2,0.5 L1.8,0.5 C0.8,0.5 0,1.3 0,2.3 L0,31.8 C0,32.8 0.8,33.6 1.8,33.6 L38.3,33.6 C39.3,33.6 40.1,32.8 40.1,31.8 L40.1,2.3 C40,1.3 39.2,0.5 38.2,0.5 Z M38.2,31.7 L1.7,31.7 C1.7,31.7 1.7,31.7 1.7,31.7 L1.7,2.3 L38.2,2.3 L38.2,31.7 Z" id="Shape" fill="#A4C49A" fill-rule="nonzero"></path>
                <path d="M34.9,4.7 L5.1,4.7 C4.6,4.7 4.2,5.1 4.2,5.6 L4.2,25.1 C4.2,25.6 4.6,26 5.1,26 L34.9,26 C35.4,26 35.8,25.6 35.8,25.1 L35.8,5.6 C35.8,5.1 35.4,4.7 34.9,4.7 Z M6,6.5 L34,6.5 L34,21.4 L28.4,15.8 C28.1,15.5 27.5,15.5 27.2,15.8 L23.8,19.2 L16,11.4 C15.7,11.1 15.1,11.1 14.8,11.4 L6,20.3 L6,6.5 Z M6,24.2 L6,22.8 L15.5,13.3 L26.4,24.2 L6,24.2 Z M34,24.2 L28.8,24.2 L25.1,20.5 L27.9,17.7 L33.9,23.7 C34,23.8 34,23.8 34.1,23.9 L34,24.2 Z" id="Shape" fill="#444242" fill-rule="nonzero"></path>
                <path d="M23.8,8.1 C22,8.1 20.5,9.6 20.5,11.4 C20.5,13.2 22,14.7 23.8,14.7 C25.6,14.7 27.1,13.2 27.1,11.4 C27.1,9.6 25.6,8.1 23.8,8.1 Z M23.8,13.1 C22.9,13.1 22.2,12.4 22.2,11.5 C22.2,10.6 22.9,9.9 23.8,9.9 C24.7,9.9 25.4,10.6 25.4,11.5 C25.3,12.3 24.6,13.1 23.8,13.1 Z" id="Shape" fill="#444242" fill-rule="nonzero"></path>
                <path d="M12.8,28 L5.1,28 C4.6,28 4.2,28.4 4.2,28.9 C4.2,29.4 4.6,29.8 5.1,29.8 L12.8,29.8 C13.3,29.8 13.7,29.4 13.7,28.9 C13.6,28.4 13.2,28 12.8,28 Z" id="Path" fill="#444242"></path>
                <path d="M18.8,28 L16.8,28 C16.3,28 15.9,28.4 15.9,28.9 C15.9,29.4 16.3,29.8 16.8,29.8 L18.8,29.8 C19.3,29.8 19.7,29.4 19.7,28.9 C19.7,28.4 19.3,28 18.8,28 Z" id="Path" fill="#444242"></path>
            </g>
        </g>
    </g>
</svg>