<?xml version="1.0" encoding="UTF-8"?>
<svg width="30px" height="40px" viewBox="0 0 30 40" version="1.1" xmlns="http://www.w3.org/2000/svg" xmlns:xlink="http://www.w3.org/1999/xlink">
    <!-- Generator: Sketch 52.6 (67491) - http://www.bohemiancoding.com/sketch -->
    <title>iconrar</title>
    <desc>Created with Sketch.</desc>
    <g id="Page-1" stroke="none" stroke-width="1" fill="none" fill-rule="evenodd">
        <g id="Artboard" transform="translate(-283.000000, -488.000000)" fill-rule="nonzero">
            <g id="iconrar" transform="translate(283.000000, 488.000000)">
                <g id="Group" transform="translate(5.000000, 25.000000)" fill="#444242">
                    <path d="M4,5.6 C4.1,5.8 4.3,5.9 4.5,6.2 C4.7,6.4 4.9,6.7 5.1,7 C5.3,7.3 5.5,7.6 5.7,7.9 C5.9,8.2 6.1,8.5 6.2,8.8 L5,8.8 C4.8,8.5 4.7,8.2 4.5,7.9 C4.3,7.6 4.1,7.3 4,7.1 C3.8,6.8 3.6,6.6 3.5,6.3 C3.3,6.1 3.2,5.9 3,5.7 C2.9,5.7 2.8,5.7 2.7,5.7 C2.6,5.7 2.5,5.7 2.4,5.7 L1.4,5.7 L1.4,8.8 L0.3,8.8 L0.3,1.1 C0.6,1 1,1 1.3,0.9 C1.6,0.8 2,0.9 2.3,0.9 C3.4,0.9 4.2,1.1 4.8,1.5 C5.4,1.9 5.7,2.5 5.7,3.4 C5.7,3.9 5.6,4.4 5.3,4.7 C4.9,5.2 4.5,5.5 4,5.6 Z M2.3,2 C1.8,2 1.5,2 1.2,2 L1.2,5 L2,5 C2.4,5 2.7,5 3,4.9 C3.3,4.9 3.6,4.8 3.8,4.7 C4,4.6 4.2,4.4 4.3,4.3 C4.4,4.2 4.5,3.9 4.5,3.5 C4.5,3.2 4.4,3 4.3,2.8 C4.2,2.6 4,2.4 3.8,2.3 C3.6,2.2 3.4,2.1 3.1,2.1 C2.9,2 2.6,2 2.3,2 Z" id="Shape"></path>
                    <path d="M12.8,8.9 C12.7,8.6 12.6,8.2 12.4,7.9 C12.3,7.6 12.2,7.2 12,6.9 L8.4,6.9 L7.7,8.9 L6.6,8.9 C6.9,8.1 7.2,7.3 7.4,6.6 C7.7,5.9 7.9,5.2 8.2,4.6 C8.5,4 8.7,3.4 9,2.8 C9.2,2.2 9.5,1.7 9.8,1.1 L10.8,1.1 C11.1,1.7 11.3,2.2 11.6,2.8 C11.8,3.4 12.1,4 12.4,4.6 C12.7,5.2 12.9,5.9 13.2,6.6 C13.5,7.3 13.7,8.1 14,8.9 L12.8,8.9 Z M11.8,6 C11.6,5.3 11.3,4.7 11.1,4.1 C10.9,3.5 10.6,2.9 10.4,2.3 C10.1,2.9 9.9,3.5 9.6,4.1 C9.4,4.7 9.1,5.3 8.9,6 L11.8,6 Z" id="Shape"></path>
                    <path d="M18.9,5.6 C19,5.8 19.2,5.9 19.4,6.2 C19.6,6.4 19.8,6.7 20,7 C20.2,7.3 20.4,7.6 20.6,7.9 C20.8,8.2 21,8.5 21.1,8.8 L19.9,8.8 C19.7,8.5 19.6,8.2 19.4,7.9 C19.2,7.6 19,7.3 18.9,7.1 C18.8,6.9 18.5,6.6 18.4,6.3 C18.2,6.1 18.1,5.9 17.9,5.7 C17.8,5.7 17.7,5.7 17.6,5.7 C17.5,5.7 17.4,5.7 17.3,5.7 L16.3,5.7 L16.3,8.8 L15.2,8.8 L15.2,1.1 C15.5,1 15.9,1 16.2,0.9 C16.5,0.8 16.9,0.9 17.2,0.9 C18.3,0.9 19.1,1.1 19.7,1.5 C20.3,1.9 20.6,2.5 20.6,3.4 C20.6,3.9 20.5,4.4 20.2,4.7 C19.9,5.2 19.5,5.5 18.9,5.6 Z M17.3,2 C16.8,2 16.5,2 16.2,2 L16.2,5 L17,5 C17.4,5 17.7,5 18,4.9 C18.3,4.9 18.6,4.8 18.8,4.7 C19,4.6 19.2,4.4 19.3,4.3 C19.4,4.2 19.5,3.9 19.5,3.5 C19.5,3.2 19.4,3 19.3,2.8 C19.2,2.6 19,2.4 18.8,2.3 C18.6,2.2 18.4,2.1 18.1,2.1 C17.8,2 17.6,2 17.3,2 Z" id="Shape"></path>
                </g>
                <path d="M15.7,22.3 C14.7,22.3 14,21.9 14,21.3 C14,20.7 14.7,20.3 15.7,20.3 C16.7,20.3 17.4,20.7 17.4,21.3 C17.4,21.8 16.7,22.3 15.7,22.3 Z M15.7,20.7 C14.9,20.7 14.5,21 14.5,21.2 C14.5,21.4 15,21.7 15.7,21.7 C16.4,21.7 16.9,21.4 16.9,21.2 C16.9,21 16.4,20.7 15.7,20.7 Z" id="Shape" fill="#A4C49A"></path>
                <path d="M26.3,0 L8.7,0 C8.4,0 8.1,0.1 7.9,0.3 L0.4,7.9 C0.1,8.1 0,8.4 0,8.7 L0,36.3 C0,38.3 1.7,40 3.7,40 L26.3,40 C28.3,40 30,38.4 30,36.3 L30,3.7 C30,1.7 28.3,0 26.3,0 Z M8.8,2.7 L8.8,7.4 C8.8,8.1 8.2,8.7 7.5,8.7 L2.8,8.7 L8.8,2.7 Z M27.6,36.3 C27.6,37 27,37.6 26.3,37.6 L3.7,37.6 C3,37.6 2.4,37 2.4,36.3 L2.4,11.1 L7.5,11.1 C9.5,11.1 11.2,9.4 11.2,7.4 L11.2,2.3 L15.2,2.3 L15.2,8.3 L13.3,8.3 L13.3,8.8 L15.2,8.8 L15.2,11.7 L13.3,11.7 L13.3,12.2 L15.2,12.2 L15.2,15.1 L13.3,15.1 L13.3,15.6 L15.2,15.6 L15.2,18.3 L13,18.3 L13,20.7 C13,22.2 14.2,23.4 15.7,23.4 C17.2,23.4 18.4,22.2 18.4,20.7 L18.4,18.3 L16.2,18.3 L16.2,15.6 L18,15.6 L18,15.1 L16.1,15.1 L16.1,12.2 L18,12.2 L18,11.7 L16.1,11.7 L16.1,8.8 L18,8.8 L18,8.3 L16.1,8.3 L16.1,2.3 L26.2,2.3 C26.9,2.3 27.5,2.9 27.5,3.6 L27.5,36.3 L27.6,36.3 Z M17.6,19.2 L17.6,20.9 C17.6,22 16.7,22.9 15.6,22.9 C14.5,22.9 13.6,22 13.6,20.9 L13.6,19.2 L17.6,19.2 Z" id="Shape" fill="#A4C49A"></path>
            </g>
        </g>
    </g>
</svg>