<?xml version="1.0" encoding="UTF-8"?>
<svg width="30px" height="40px" viewBox="0 0 30 40" version="1.1" xmlns="http://www.w3.org/2000/svg" xmlns:xlink="http://www.w3.org/1999/xlink">
    <!-- Generator: Sketch 52.6 (67491) - http://www.bohemiancoding.com/sketch -->
    <title>iconword</title>
    <desc>Created with Sketch.</desc>
    <g id="Page-1" stroke="none" stroke-width="1" fill="none" fill-rule="evenodd">
        <g id="Artboard" transform="translate(-153.000000, -488.000000)">
            <g id="iconword" transform="translate(153.000000, 488.000000)">
                <g id="Group" transform="translate(7.000000, 14.000000)">
                    <g fill="#444242">
                        <polygon id="Path" points="0.2 13.9 9.6 15.6 9.6 0.4 0.2 2.1"></polygon>
                        <rect id="Rectangle" x="10.1" y="2.1" width="5.9" height="11.8"></rect>
                    </g>
                    <g transform="translate(2.000000, 3.000000)" fill="#FFFFFF">
                        <polygon id="Path" points="4.1 5.8 3.4 2.9 2.5 2.9 1.7 5.9 1.1 2.9 0.2 2.9 1.5 7.2 2.2 7.2 2.9 4.1 3.7 7.2 4.4 7.2 5.8 2.9 4.9 2.9"></polygon>
                        <rect id="Rectangle" x="8.1" y="0.5" width="5.1" height="1.2"></rect>
                        <rect id="Rectangle" x="8.1" y="2.5" width="5.1" height="1.2"></rect>
                        <rect id="Rectangle" x="8.1" y="4.5" width="5.1" height="1.2"></rect>
                        <rect id="Rectangle" x="8.1" y="6.4" width="5.1" height="1.2"></rect>
                        <rect id="Rectangle" x="8.1" y="8.4" width="5.1" height="1.2"></rect>
                    </g>
                </g>
                <path d="M26.3,0 L8.7,0 C8.4,0 8.1,0.1 7.9,0.3 L0.4,7.9 C0.1,8.1 0,8.4 0,8.7 L0,36.3 C0,38.3 1.7,40 3.7,40 L26.3,40 C28.3,40 30,38.4 30,36.3 L30,3.7 C30,1.7 28.3,0 26.3,0 Z M8.8,2.7 L8.8,7.4 C8.8,8.1 8.2,8.7 7.5,8.7 L2.8,8.7 L8.8,2.7 Z M27.6,36.3 C27.6,37 27,37.6 26.3,37.6 L3.7,37.6 C3,37.6 2.4,37 2.4,36.3 L2.4,11.1 L7.5,11.1 C9.5,11.1 11.2,9.4 11.2,7.4 L11.2,2.3 L26.3,2.3 C27,2.3 27.6,2.9 27.6,3.6 L27.6,36.3 Z" id="Shape" fill="#A4C49A" fill-rule="nonzero"></path>
            </g>
        </g>
    </g>
</svg>