<?xml version="1.0" encoding="UTF-8"?>
<svg width="30px" height="40px" viewBox="0 0 30 40" version="1.1" xmlns="http://www.w3.org/2000/svg" xmlns:xlink="http://www.w3.org/1999/xlink">
    <!-- Generator: Sketch 52.6 (67491) - http://www.bohemiancoding.com/sketch -->
    <title>iconpdf</title>
    <desc>Created with Sketch.</desc>
    <g id="Page-1" stroke="none" stroke-width="1" fill="none" fill-rule="evenodd">
        <g id="Artboard" transform="translate(-249.000000, -488.000000)">
            <g id="iconpdf" transform="translate(249.000000, 488.000000)">
                <path d="M26.3,0 L8.7,0 C8.4,0 8.1,0.1 7.9,0.3 L0.4,7.9 C0.1,8.1 0,8.4 0,8.7 L0,36.3 C0,38.3 1.7,40 3.7,40 L26.3,40 C28.3,40 30,38.4 30,36.3 L30,3.7 C30,1.7 28.3,0 26.3,0 Z M8.8,2.7 L8.8,7.4 C8.8,8.1 8.2,8.7 7.5,8.7 L2.8,8.7 L8.8,2.7 Z M27.6,36.3 C27.6,37 27,37.6 26.3,37.6 L3.7,37.6 C3,37.6 2.4,37 2.4,36.3 L2.4,11.1 L7.5,11.1 C9.5,11.1 11.2,9.4 11.2,7.4 L11.2,2.3 L26.3,2.3 C27,2.3 27.6,2.9 27.6,3.6 L27.6,36.3 Z" id="Shape" fill="#A4C49A" fill-rule="nonzero"></path>
                <g id="Group" transform="translate(6.000000, 26.000000)" fill="#444242">
                    <path d="M2.1,0.1 C3.2,0.1 4,0.3 4.6,0.7 C5.2,1.1 5.5,1.7 5.5,2.6 C5.5,3 5.4,3.4 5.3,3.7 C5.1,4 4.9,4.3 4.6,4.5 C4.3,4.7 3.9,4.8 3.5,4.9 C3.1,5 2.6,5 2,5 L1.3,5 L1.3,7.7 L0,7.7 L0,0.2 C0.3,0.1 0.7,0.1 1.1,0.1 C1.5,0.1 1.8,0.1 2.1,0.1 Z M2.2,1.3 C1.9,1.3 1.6,1.3 1.3,1.3 L1.3,3.9 L2,3.9 C2.7,3.9 3.2,3.8 3.5,3.6 C3.8,3.4 4,3.1 4,2.5 C4,2.3 4,2 3.9,1.9 C3.8,1.7 3.7,1.6 3.5,1.5 C3.3,1.4 3.1,1.3 2.9,1.3 C2.8,1.4 2.5,1.3 2.2,1.3 Z" id="Shape" fill-rule="nonzero"></path>
                    <path d="M13.2,4 C13.2,4.7 13.1,5.2 12.9,5.7 C12.7,6.2 12.4,6.6 12,6.9 C11.6,7.2 11.2,7.5 10.6,7.6 C10.1,7.8 9.5,7.8 8.8,7.8 C8.5,7.8 8.1,7.8 7.8,7.8 C7.4,7.8 7,7.7 6.7,7.6 L6.7,0.2 C7,0.1 7.4,0.1 7.8,3.55271368e-15 C8.2,3.55271368e-15 8.5,3.55271368e-15 8.8,3.55271368e-15 C9.4,3.55271368e-15 10,0.1 10.5,0.2 C11,0.3 11.5,0.6 11.8,0.9 C12.1,1.2 12.5,1.6 12.7,2.1 C13.1,2.7 13.2,3.3 13.2,4 Z M8.2,6.7 C8.3,6.7 8.4,6.7 8.5,6.7 C8.6,6.7 8.8,6.7 9,6.7 C9.9,6.7 10.6,6.5 11.1,6 C11.6,5.5 11.8,4.9 11.8,4 C11.8,3.1 11.6,2.5 11.1,2 C10.6,1.5 10,1.3 9,1.3 C8.6,1.3 8.3,1.3 8.1,1.3 L8.1,6.7 L8.2,6.7 Z" id="Shape" fill-rule="nonzero"></path>
                    <polygon id="Path" points="14.7 7.8 14.7 0.2 19.5 0.2 19.5 1.4 16.1 1.4 16.1 3.3 19.1 3.3 19.1 4.5 16.1 4.5 16.1 7.8 14.7 7.8"></polygon>
                </g>
                <path d="M23.8,18.6 C23.3,18 22.6,17.6 21.7,17.5 C20.4,17.3 19.1,17.2 17.9,17.2 C16.8,16.1 15.8,14.8 15.1,13.4 C15.7,11.4 16,9.6 16.2,8.6 C16.3,8.1 16.2,7.5 15.8,7.1 C15.5,6.7 15,6.5 14.6,6.5 C14.6,6.5 14.6,6.5 14.6,6.5 C14.1,6.5 13.7,6.7 13.5,7 C12.6,8.2 13.2,11.1 13.3,11.7 C13.4,12.3 13.6,12.8 13.9,13.4 C13.4,14.9 12.7,16.6 11.9,18.2 C8.9,19.3 7.1,20.8 7,20.9 C6.5,21.4 6.3,21.9 6.3,22.3 C6.3,22.6 6.4,23 6.8,23.3 C7.1,23.6 7.5,23.7 7.9,23.7 C8.3,23.7 8.8,23.6 9.1,23.3 C10.5,22.1 11.7,20.6 12.6,19.1 C14,18.6 15.6,18.3 17.5,18.2 C18.8,19.5 20.2,20.5 21,21 C21.9,21.6 23.1,21.5 23.8,20.8 C24.6,20.3 24.6,19.4 23.8,18.6 Z M8.5,22.6 C8.2,22.8 7.8,22.8 7.6,22.6 C7.5,22.5 7.5,22.5 7.5,22.4 C7.5,22.3 7.5,22.2 7.9,21.8 C7.9,21.8 9,20.8 11,19.9 C10.2,21 9.4,21.9 8.5,22.6 Z M14.4,7.8 C14.5,7.7 14.5,7.7 14.7,7.7 C14.9,7.7 15,7.8 15.1,7.9 C15.2,8 15.3,8.2 15.2,8.4 C15.1,9.1 14.9,10.3 14.5,11.6 C14.5,11.6 14.5,11.5 14.5,11.5 C14.2,10.3 14,8.4 14.4,7.8 Z M13.5,17.8 C14,16.8 14.4,15.8 14.8,14.8 C15.3,15.7 16,16.5 16.6,17.2 C15.4,17.4 14.4,17.6 13.5,17.8 Z M23.1,20.2 C22.7,20.5 22.2,20.6 21.7,20.3 C21.1,19.9 20.2,19.2 19.2,18.4 C20,18.4 20.7,18.5 21.5,18.7 C22.1,18.8 22.6,19.1 22.9,19.5 C23.4,19.9 23.2,20 23.1,20.2 Z" id="Shape" fill="#444242" fill-rule="nonzero"></path>
            </g>
        </g>
    </g>
</svg>