<?xml version="1.0" encoding="UTF-8"?>
<svg width="30px" height="40px" viewBox="0 0 30 40" version="1.1" xmlns="http://www.w3.org/2000/svg" xmlns:xlink="http://www.w3.org/1999/xlink">
    <!-- Generator: Sketch 52.6 (67491) - http://www.bohemiancoding.com/sketch -->
    <title>iconzip</title>
    <desc>Created with Sketch.</desc>
    <g id="Page-1" stroke="none" stroke-width="1" fill="none" fill-rule="evenodd">
        <g id="Artboard" transform="translate(-185.000000, -488.000000)">
            <g id="iconzip" transform="translate(185.000000, 488.000000)">
                <g id="Group" transform="translate(7.000000, 25.000000)" fill="#444242">
                    <path d="M6.2,2 C6,2.2 5.8,2.4 5.6,2.7 C5.4,3 5.1,3.3 4.9,3.6 C4.6,3.9 4.4,4.3 4.1,4.7 C3.8,5.1 3.6,5.5 3.3,5.8 C3,6.2 2.8,6.6 2.6,6.9 C2.4,7.3 2.2,7.6 2,8 L6.4,8 L6.4,8.9 L0.7,8.9 L0.7,8.2 C0.9,7.9 1,7.6 1.3,7.2 C1.5,6.8 1.7,6.5 2,6.1 C2.2,5.7 2.5,5.3 2.8,5 C3.1,4.6 3.3,4.2 3.6,3.9 C3.9,3.6 4.1,3.2 4.4,2.9 C4.6,2.6 4.9,2.3 5.1,2.1 L1.1,2.1 L1.1,1.2 L6.5,1.2 L6.5,2 L6.2,2 Z" id="Path"></path>
                    <polygon id="Path" points="7.7 1.1 8.8 1.1 8.8 8.9 7.7 8.9"></polygon>
                    <path d="M12.8,1 C13.9,1 14.7,1.2 15.3,1.6 C15.9,2 16.2,2.6 16.2,3.5 C16.2,4 16.1,4.3 16,4.7 C15.9,5.1 15.6,5.3 15.3,5.5 C15,5.7 14.6,5.8 14.2,5.9 C13.8,6 13.2,6 12.7,6 L11.8,6 L11.8,8.9 L10.7,8.9 L10.7,1.2 C11,1.1 11.4,1.1 11.7,1 C12,0.9 12.5,1 12.8,1 Z M12.9,2 C12.4,2 12.1,2 11.8,2 L11.8,5.1 L12.6,5.1 C13,5.1 13.3,5.1 13.6,5 C13.9,5 14.2,4.9 14.4,4.8 C14.6,4.7 14.8,4.5 14.9,4.3 C15,4.1 15.1,3.8 15.1,3.5 C15.1,3.2 15,3 14.9,2.8 C14.8,2.6 14.6,2.4 14.4,2.3 C14.2,2.2 14,2.1 13.7,2.1 C13.4,2 13.2,2 12.9,2 Z" id="Shape" fill-rule="nonzero"></path>
                </g>
                <path d="M15.7,22.3 C14.7,22.3 14,21.9 14,21.3 C14,20.7 14.7,20.3 15.7,20.3 C16.7,20.3 17.4,20.7 17.4,21.3 C17.4,21.8 16.7,22.3 15.7,22.3 Z M15.7,20.7 C14.9,20.7 14.5,21 14.5,21.2 C14.5,21.4 15,21.7 15.7,21.7 C16.4,21.7 16.9,21.4 16.9,21.2 C16.9,21 16.4,20.7 15.7,20.7 Z" id="Shape" fill="#A4C49A" fill-rule="nonzero"></path>
                <path d="M26.3,0 L8.7,0 C8.4,0 8.1,0.1 7.9,0.3 L0.4,7.9 C0.1,8.1 0,8.4 0,8.7 L0,36.3 C0,38.3 1.7,40 3.7,40 L26.3,40 C28.3,40 30,38.4 30,36.3 L30,3.7 C30,1.7 28.3,0 26.3,0 Z M8.8,2.7 L8.8,7.4 C8.8,8.1 8.2,8.7 7.5,8.7 L2.8,8.7 L8.8,2.7 Z M27.6,36.3 C27.6,37 27,37.6 26.3,37.6 L3.7,37.6 C3,37.6 2.4,37 2.4,36.3 L2.4,11.1 L7.5,11.1 C9.5,11.1 11.2,9.4 11.2,7.4 L11.2,2.3 L15.2,2.3 L15.2,4.9 L13.3,4.9 L13.3,5.4 L15.2,5.4 L15.2,8.3 L13.3,8.3 L13.3,8.8 L15.2,8.8 L15.2,11.7 L13.3,11.7 L13.3,12.2 L15.2,12.2 L15.2,15.1 L13.3,15.1 L13.3,15.6 L15.2,15.6 L15.2,18.3 L13,18.3 L13,20.7 C13,22.2 14.2,23.4 15.7,23.4 C17.2,23.4 18.4,22.2 18.4,20.7 L18.4,18.3 L16.2,18.3 L16.2,15.6 L18,15.6 L18,15.1 L16.1,15.1 L16.1,12.2 L18,12.2 L18,11.7 L16.1,11.7 L16.1,8.8 L18,8.8 L18,8.3 L16.1,8.3 L16.1,5.4 L18,5.4 L18,4.9 L16.1,4.9 L16.1,2.3 L26.2,2.3 C26.9,2.3 27.5,2.9 27.5,3.6 L27.5,36.3 L27.6,36.3 Z M17.6,19.2 L17.6,20.9 C17.6,22 16.7,22.9 15.6,22.9 C14.5,22.9 13.6,22 13.6,20.9 L13.6,19.2 L17.6,19.2 Z" id="Shape" fill="#A4C49A" fill-rule="nonzero"></path>
            </g>
        </g>
    </g>
</svg>